<svg width="489" height="219" viewBox="0 0 489 219" fill="none" xmlns="http://www.w3.org/2000/svg">
<path d="M336.763 26.7077C335.769 27.0507 334.833 27.1389 333.943 26.9821C333.076 26.8253 332.243 26.6096 331.446 26.3156C331.076 26.2666 330.752 26.1587 330.475 26.0019C319.47 22.5517 308.061 20.3757 296.258 19.4543C265.429 17.1313 235.547 23.4044 206.601 38.2738C195.99 43.7432 186.002 49.9477 176.639 56.8972C167.299 63.827 158.282 71.247 149.589 79.1668C135.648 92.0268 123.118 105.769 111.997 120.374C100.9 134.959 91.0049 150.289 82.312 166.364C79.0984 172.088 76.0813 177.871 73.2492 183.693C73.1799 183.879 73.1105 184.046 73.018 184.203C70.7986 188.339 69.1456 192.662 68.0705 197.18C67.5388 199.298 66.7874 201.336 65.8048 203.297C64.5679 205.855 62.4988 207.002 59.6088 206.747C57.9674 206.688 57.1698 205.933 57.2044 204.473C57.1698 203.395 57.3894 202.336 57.8518 201.297C59.9788 195.916 61.7358 190.515 63.123 185.105C64.5333 179.674 65.8048 174.225 66.9145 168.755C67.192 167.344 67.4925 165.962 67.8393 164.599C74.7404 133.234 80.7052 101.75 85.7337 70.1492C85.8261 69.5023 85.8493 68.8161 85.8261 68.1104C85.7568 67.8262 85.7337 67.4831 85.7337 67.091C84.8089 67.2773 84.1269 67.6301 83.6992 68.1496C83.2599 68.6495 82.9131 69.2278 82.6357 69.8747C82.5663 70.11 82.4623 70.3452 82.312 70.5805C81.8496 71.4234 81.4104 72.286 81.0173 73.1681C76.5437 81.6173 72.0702 90.1252 67.6081 98.692C60.7301 112.366 53.8521 126.039 46.9857 139.703C36.9635 159.414 26.8835 179.204 16.7456 199.062C14.5609 203.454 12.168 207.747 9.57866 211.961C8.9082 213.03 8.30709 214.049 7.77535 215.02C6.85058 216.902 5.3247 218.176 3.19773 218.862C2.55039 218.989 1.9724 219.029 1.44066 218.98C0.885795 218.921 0.504327 218.676 0.284693 218.235C0.00726095 217.941 -0.0620955 217.588 0.0534996 217.176C0.145977 216.784 0.319372 216.402 0.562124 216.039C24.6756 168.187 48.8352 120.364 73.0643 72.58C75.3415 68.2967 77.7806 64.1015 80.37 59.9945C80.948 59.0536 81.4913 58.142 81.9883 57.25C83.3986 54.7408 85.5487 52.9666 88.4155 51.9179C90.1726 51.3984 91.6291 51.4376 92.8082 52.0355C94.0104 52.6432 94.7271 53.79 94.9814 55.4857C95.2819 60.4062 94.9814 65.3463 94.0566 70.306C89.7102 96.8885 84.728 123.412 79.1215 149.857C79.1215 150.171 79.0522 150.465 78.9366 150.72C78.717 151.484 78.5898 152.249 78.5667 153.033C78.5667 153.798 78.9019 154.562 79.5839 155.346C80.1388 154.484 80.7052 153.621 81.2948 152.759C82.497 151.034 83.6298 149.308 84.7164 147.583C97.1084 126.833 112.009 107.572 129.429 89.792C139.44 79.5785 150.005 69.9924 161.103 61.0531C172.2 52.0943 184.095 44.1058 196.799 37.0976C223.086 22.9046 250.678 15.4454 279.566 14.7103C297.842 14.3182 315.32 16.651 332.001 21.6891C332.394 21.797 332.833 21.9048 333.295 22.0028C334.128 22.189 334.925 22.4341 335.7 22.7477C336.463 23.0418 337.145 23.5319 337.734 24.2376C337.827 24.3454 337.884 24.5317 337.919 24.7865C337.977 25.0511 337.988 25.2962 337.965 25.5314C337.838 25.7667 337.665 25.9921 337.457 26.198C337.272 26.4136 337.041 26.5802 336.763 26.7077Z" fill="white"/>
<path d="M275.701 148.196C276.961 147.128 278.013 146.53 278.846 146.393C279.701 146.265 280.256 146.383 280.51 146.745C280.788 147.118 280.626 147.598 280.048 148.196C276.649 151.676 272.858 154.665 268.673 157.175C264.477 159.684 260.142 161.134 255.68 161.527C251.241 161.919 248.571 159.87 247.681 155.371C246.976 150.901 250.143 141.796 257.206 128.044C264.292 114.301 269.898 103.049 274.037 94.2862C274.372 93.5021 274.892 92.816 275.609 92.2082C276.534 91.4241 277.62 91.2477 278.892 91.6593C279.32 91.8456 279.736 92.12 280.14 92.4827C280.568 92.8258 280.707 93.4531 280.556 94.3646C262.362 130.984 253.553 150.901 254.108 154.116C254.686 157.312 257.125 158.096 261.414 156.469C265.691 154.851 269.008 153.205 271.355 151.529C273.69 149.833 275.146 148.725 275.701 148.196Z" fill="white"/>
<path d="M278.014 162.899C274.385 162.899 272.558 161.281 272.558 158.037C272.558 154.097 275.587 147.128 281.621 137.14C281.829 136.728 282.245 136.512 282.869 136.512C285.297 136.512 286.522 137.326 286.522 138.943C286.522 139.551 286.303 140.266 285.875 141.1C285.713 141.335 283.702 145.648 279.818 154.038C279.193 155.4 278.893 156.41 278.893 157.057C278.893 157.792 279.274 158.155 280.049 158.155C282.846 158.155 290.221 152.234 302.151 140.394C303.688 138.806 305.214 138.002 306.729 138.002C308.913 138.002 310.011 138.688 310.011 140.041C310.011 140.57 309.329 142.54 307.977 145.961C306.127 150.646 305.203 153.332 305.203 154.038C305.203 155.116 305.63 155.645 306.497 155.645C308.59 155.645 314.774 152.46 325.039 146.079C325.594 145.638 326.079 145.412 326.519 145.412C327.467 145.412 327.952 146.108 327.952 147.49C327.952 147.833 327.813 148.118 327.536 148.353C322.103 152.303 317.502 155.312 313.711 157.371C310.22 159.252 307.145 160.193 304.463 160.193H303.677C299.7 159.488 297.712 156.861 297.712 152.313C293.481 155.479 289.967 158.037 287.17 159.997C284.395 161.938 281.344 162.899 278.014 162.899Z" fill="white"/>
<path d="M331.758 156.822C331.353 156.459 330.891 156.145 330.371 155.881C330.151 155.724 329.954 155.587 329.769 155.449C328.405 155.871 327.273 156.508 326.348 157.371C325.851 157.9 325.25 158.341 324.544 158.704C323.562 159.36 322.464 159.635 321.262 159.527C320.591 159.449 320.036 159.174 319.597 158.704C319.504 158.625 319.458 158.459 319.458 158.194C319.458 157.939 319.504 157.743 319.597 157.606C319.782 157.449 319.955 157.312 320.106 157.174C321.123 156.028 322.221 154.979 323.389 154.038C324.649 153.019 325.446 151.98 325.793 150.901C326.163 149.833 325.909 148.578 325.053 147.137C324.036 145.079 323.238 142.893 322.649 140.59C322.498 139.943 322.325 139.247 322.14 138.512C321.805 137.551 322.14 136.699 323.157 135.963C323.932 135.522 324.753 135.395 325.654 135.571C326.544 135.758 327.157 136.179 327.504 136.826C327.989 138.11 328.486 139.394 328.983 140.668C329.504 141.844 329.966 143.04 330.371 144.236C331.076 145.677 332.185 145.834 333.7 144.707C335.202 143.452 336.775 142.188 338.416 140.904C340.104 139.551 341.803 138.188 343.502 136.826C344.82 135.728 346.254 134.768 347.803 133.925C348.727 133.405 349.617 133.435 350.484 134.003C350.912 134.454 351.062 134.846 350.947 135.179C350.854 135.493 350.646 135.797 350.346 136.081C346.762 139.374 343.248 142.648 339.803 145.883C338.936 146.589 338.092 147.294 337.26 148C335.619 149.157 334.717 150.156 334.532 151.019C334.37 151.882 335.318 153.175 337.353 154.9C338.485 155.763 340.231 155.861 342.578 155.175C344.947 154.499 347.49 153.469 350.207 152.078C352.912 150.666 355.363 149.313 357.559 148C359.096 147.059 360.333 146.383 361.258 145.961C363.535 144.942 364.865 144.844 365.234 145.648C365.628 146.432 365.026 147.402 363.431 148.549C362.564 149.049 361.743 149.558 360.981 150.078C357.524 152.176 354.056 154.234 350.577 156.273C348.82 157.292 346.924 158.135 344.889 158.782C342.485 159.566 340.185 159.841 338 159.605C335.804 159.35 333.723 158.419 331.758 156.822Z" fill="white"/>
<path d="M405.951 146.04C406.437 146.883 405.604 148.157 403.454 149.882C401.293 151.587 397.501 153.646 392.08 156.077C390.045 156.812 388.566 157.39 387.641 157.802C386.716 158.223 386.034 158.762 385.606 159.409C385.202 160.066 384.751 161.085 384.265 162.467C383.826 163.467 383.26 164.81 382.555 166.506C381.63 168.603 380.717 170.76 379.826 172.975C378.127 177.523 376.104 182.002 373.769 186.423C371.457 190.834 368.452 194.696 364.753 197.989C361.054 201.283 356.291 203.478 350.465 204.576C344.616 205.517 338.952 205.654 333.495 205.007C328.039 204.351 322.699 203.057 317.451 201.126C315.324 200.312 313.416 199.244 311.717 197.911C308.92 195.451 308.711 192.706 311.116 189.677C312.387 188.187 313.867 186.825 315.555 185.6C318.953 183.296 322.491 181.179 326.19 179.248C333.068 175.72 340.107 172.485 347.321 169.564C354.511 166.614 361.77 163.781 369.145 161.056C369.631 160.85 370.186 160.625 370.81 160.39C372.81 159.605 374.856 158.821 376.96 158.037C378.439 157.596 379.422 156.773 379.919 155.567C380.069 155.126 380.115 154.734 380.058 154.391C379.965 154.156 379.803 154.028 379.595 153.999C379.376 153.979 379.144 154.028 378.902 154.156C378.162 154.499 377.399 154.9 376.636 155.371C376.197 155.557 375.734 155.792 375.249 156.077C372.59 157.39 369.839 157.959 366.972 157.802C362.464 157.802 360.198 156.096 360.129 152.666C360.036 149.872 360.591 147.216 361.793 144.707C363.019 142.178 364.753 139.806 366.972 137.61C367.215 137.375 367.539 137.198 367.943 137.061C368.371 136.904 368.799 136.787 369.238 136.708C369.33 136.708 369.423 136.689 369.515 136.63C370.371 136.552 371.041 136.738 371.504 137.179C371.966 137.6 372.058 138.12 371.781 138.747C371.284 139.669 370.787 140.609 370.301 141.57C369.862 142.276 369.434 143.001 369.007 143.726C367.307 146.53 366.533 149.451 366.695 152.509C366.787 153.166 367.122 153.646 367.712 153.96C368.29 154.254 368.972 154.254 369.746 153.96C372.024 153.175 374.012 152.068 375.711 150.627C380.266 147.098 384.046 143.04 387.04 138.433C387.433 137.787 387.918 137.238 388.473 136.787C389.051 136.316 389.791 136.042 390.693 135.963C391.895 135.885 392.796 136.12 393.421 136.669C394.068 137.198 394.264 137.885 394.022 138.747C392.935 141.707 391.802 144.618 390.6 147.49C390.508 147.706 390.415 147.912 390.323 148.118C390.011 148.774 389.722 149.47 389.444 150.196C389.167 150.901 389.028 151.529 389.028 152.078C389.028 152.607 389.305 152.862 389.86 152.862C391.953 152.499 395.039 151.058 399.108 148.549C403.177 146.04 405.454 145.207 405.951 146.04ZM375.711 165.682C375.711 165.526 375.769 165.388 375.896 165.251C376.104 164.889 376.231 164.496 376.266 164.075C376.324 163.663 376.197 163.212 375.896 162.742C375.619 162.742 375.399 162.742 375.249 162.742C374.694 162.85 374.208 162.967 373.815 163.095C372.948 163.389 372.105 163.712 371.272 164.075C364.487 166.721 357.724 169.437 350.974 172.23C344.2 175.053 337.553 178.043 331.045 181.209C327.068 183.139 323.323 185.384 319.809 187.952C316.977 190.118 315.624 192 315.74 193.598C315.832 195.215 317.497 196.676 320.733 197.989C328.109 201.224 336.015 202.547 344.454 201.949C350.257 201.479 354.95 199.636 358.557 196.421C362.129 193.226 365.053 189.403 367.342 184.933C369.654 180.483 371.654 176.043 373.353 171.603C374.058 169.515 374.844 167.545 375.711 165.682Z" fill="white"/>
<path d="M256.235 142.641C256.813 143.082 257.079 143.562 257.021 144.091C256.951 144.64 256.767 145.121 256.466 145.542C256.466 145.62 256.466 145.66 256.466 145.66C254.304 149.972 251.068 153.227 246.756 155.422C242.433 157.618 237.231 158.529 231.127 158.167C225.266 157.696 220.677 155.951 217.348 152.952C214.019 149.972 212.088 145.973 211.568 140.955C211.349 138.495 211.453 136.054 211.892 133.623C212.354 131.222 212.921 128.801 213.603 126.37C214.03 124.86 214.458 123.341 214.897 121.822C215.73 119.312 216.435 116.784 217.024 114.215C217.915 110.197 217.406 107.393 215.499 105.825C213.614 104.237 210.944 103.394 207.499 103.316C204.043 103.218 200.563 103.355 197.049 103.747C195.015 103.933 193.165 104.051 191.501 104.1C190.819 104.1 190.299 104.257 189.929 104.57C189.559 104.884 189.212 105.237 188.911 105.629C187.12 108.325 185.374 111.059 183.686 113.823C167.965 138.936 150.926 163.401 132.593 187.219C129.749 190.846 126.824 194.433 123.807 197.962C123.125 198.825 122.351 199.579 121.495 200.236C120.663 200.912 119.646 201.412 118.444 201.726C116.224 202.275 114.467 202.157 113.172 201.373C111.878 200.589 111.277 199.187 111.369 197.178C111.531 194.874 111.924 192.551 112.571 190.199C116.571 176.006 121.738 163.852 128.061 153.736C134.408 143.64 142.049 134.525 150.996 126.37C159.966 118.195 170.3 109.942 182.022 101.63C183.871 100.375 185.351 98.8463 186.461 97.0427C188.033 94.5139 189.582 91.985 191.131 89.4757C196.864 80.1444 202.505 70.7935 208.054 61.4034C213.603 51.9937 218.851 42.486 223.822 32.8606C228.688 23.2744 231.197 16.1093 231.358 11.3751C231.509 6.6212 228.919 4.11194 223.59 3.84729C218.25 3.56304 209.834 5.35677 198.344 9.21867C187.085 13.061 176.069 17.3346 165.283 22.0394C154.521 26.7443 143.898 31.7628 133.425 37.095C129.541 39.0553 124.709 41.643 118.952 44.858C113.219 48.0534 107.566 51.5036 101.983 55.2087C96.411 58.8942 91.7987 62.5208 88.1574 66.0691C85.4756 68.7352 84.8167 70.5681 86.1691 71.5581C87.4985 72.5284 90.1688 73.0773 94.1684 73.2048C96.0873 73.2636 99.3471 73.2734 103.971 73.244C108.595 73.2244 113.762 73.0283 119.461 72.6559C122.663 72.45 125.773 72.254 128.801 72.0678C133.39 71.7051 137.309 71.4601 140.546 71.3228C143.806 71.1954 145.748 71.3522 146.372 71.7933C146.58 72.2932 144.314 72.8421 139.575 73.44C134.858 74.0477 129.032 74.5966 122.097 75.0867C115.161 75.5866 108.445 75.8905 101.937 75.9885C95.4053 76.0669 90.4693 75.8611 87.1401 75.3612C81.291 74.2928 78.6207 72.3618 79.1409 69.5585C79.6726 66.765 82.4932 63.3932 87.6025 59.4431C92.7235 55.5027 99.2431 51.3076 107.161 46.8576C115.057 42.3879 123.53 37.9379 132.593 33.4879C141.679 29.0477 150.464 24.9309 158.949 21.1377C167.422 17.3542 174.728 14.198 180.866 11.6887C187.027 9.15986 191.189 7.52297 193.35 6.78783C202.159 3.75908 209.915 1.7105 216.608 0.632305C223.324 -0.436089 228.584 -0.151838 232.376 1.49486C236.167 3.14156 238.075 6.47417 238.109 11.4927C238.132 16.5112 235.89 23.6077 231.358 32.7822C227.717 40.0747 223.845 47.2888 219.752 54.4245C215.649 61.5602 211.476 68.6763 207.222 75.7532C205.615 78.4487 203.95 81.2422 202.228 84.1436C201.303 85.7119 200.286 87.388 199.176 89.1621C200.402 88.9072 201.407 88.5642 202.182 88.1427C202.945 87.731 203.638 87.3095 204.263 86.8881C204.563 86.6822 204.91 86.4862 205.28 86.3C220.076 77.1255 236.237 67.8726 253.784 58.5413C271.32 49.21 289.769 40.5256 309.132 32.4685C328.483 24.3918 348.261 17.6874 368.456 12.3552C388.674 7.02307 408.868 3.72967 429.029 2.47504C449.189 1.22041 468.852 2.71028 488.029 6.94466C488.237 7.02307 488.457 7.19951 488.676 7.45435C488.884 7.6896 489 7.94444 489 8.19929C489 8.57175 488.827 8.86581 488.491 9.10105C488.179 9.31669 487.763 9.41471 487.243 9.41471C486.873 9.49313 486.468 9.47352 486.041 9.3363C470.042 5.80765 453.454 4.45501 436.288 5.25875C419.145 6.0723 401.759 8.53255 384.131 12.6297C366.491 16.7072 349.036 21.9512 331.742 28.3518C314.449 34.7621 297.711 41.8292 281.527 49.5629C265.344 57.2769 250.108 65.1967 235.844 73.3224C221.602 81.4285 208.701 89.2209 197.142 96.6899C197.072 96.7487 197.049 96.7683 197.049 96.7683C196.125 97.2682 195.258 97.8269 194.46 98.4542C193.651 99.0815 193.281 99.6206 193.35 100.062C193.408 100.483 194.333 100.669 196.125 100.611C196.645 100.611 197.165 100.611 197.697 100.611C200.957 100.356 204.378 100.277 207.962 100.375C211.534 100.483 214.817 101.003 217.81 101.944C222.088 103.463 224.238 106.168 224.238 110.059C224.168 111.863 223.914 113.647 223.452 115.392C222.712 118.322 221.937 121.224 221.14 124.096C220.307 127.232 219.487 130.398 218.689 133.584C217.73 137.367 217.88 141.151 219.151 144.915C220.411 148.149 222.365 150.678 225.024 152.482C227.671 154.285 230.711 155.226 234.133 155.305C237.554 155.383 240.953 154.481 244.351 152.599C246.871 151.188 248.906 149.345 250.455 147.071C250.755 146.571 251.068 146.061 251.38 145.542C251.588 145.071 251.842 144.601 252.12 144.131C252.732 143.317 253.426 142.768 254.2 142.484C254.963 142.219 255.645 142.268 256.235 142.641ZM174.346 116.254C174.404 116.156 174.531 115.999 174.716 115.784C174.994 115.372 175.329 114.843 175.733 114.215C176.161 113.569 176.485 112.961 176.704 112.412C176.912 111.843 176.936 111.491 176.751 111.353C176.566 111.226 176.022 111.471 175.132 112.098C160.024 122.135 148.152 133.427 139.529 145.973C130.893 158.52 124.42 172.889 120.108 189.101C119.738 190.532 119.704 191.336 120.016 191.493C120.316 191.65 120.802 191.424 121.449 190.826C122.12 190.248 122.767 189.572 123.391 188.787C124.039 188.003 124.513 187.454 124.825 187.141C133.633 175.555 142.176 163.871 150.441 152.09C158.729 140.327 166.694 128.389 174.346 116.254Z" fill="white"/>
</svg>
